<?xml version="1.0" encoding="iso-8859-1"?>
<!-- Generator: Adobe Illustrator 16.0.0, SVG Export Plug-In . SVG Version: 6.00 Build 0)  -->
<!DOCTYPE svg PUBLIC "-//W3C//DTD SVG 1.1//EN" "http://www.w3.org/Graphics/SVG/1.1/DTD/svg11.dtd">
<svg version="1.1" id="heart-svg" xmlns="http://www.w3.org/2000/svg" xmlns:xlink="http://www.w3.org/1999/xlink" x="0px" y="0px"
	 width="600.824px" height="600.824px" viewBox="0 0 600.824 600.824" style="enable-background:new 0 0 600.824 600.824;"
	 xml:space="preserve">
	 <defs>
    <filter id="change-fill-on-hover">
      <feColorMatrix 
		color-interpolation-filters="sRGB"
		type="matrix"
		values="0.99 0   0   0   0
				0   0.76  0   0   0
				0   0   0.76  0   0
				0   0   0   1   0 "/>
	</filter>
  </defs>
<g>
	<g>
		<path d="M300.413,579.295l-3.838-2.256c-0.417-0.244-42.267-24.99-93.594-66.887C155.53,471.42,89.913,409.596,46.783,335.031
			C15.751,281.351,0.011,227.687,0,175.529c-0.002-22.647,4.062-43.951,12.079-63.319c7.697-18.593,18.843-34.986,33.129-48.724
			c28.135-27.056,66.771-41.957,108.79-41.957c25.468,0,48.491,4.055,68.428,12.051c19.008,7.624,35.286,18.838,48.382,33.333
			c13.457,14.893,23.404,33.046,29.605,53.767c6.201-20.723,16.148-38.872,29.607-53.767c13.098-14.494,29.377-25.709,48.385-33.332
			c19.939-7.997,42.965-12.051,68.434-12.051c42.016,0,80.648,14.901,108.783,41.957c14.287,13.738,25.434,30.132,33.131,48.725
			c8.016,19.368,12.078,40.672,12.072,63.319c-0.01,52.166-15.752,105.83-46.795,159.502c-19.068,32.977-44.084,66.23-74.354,98.834
			c-24.145,26.008-51.676,51.676-81.828,76.289c-51.328,41.896-93.182,66.641-93.598,66.887L300.413,579.295z M153.998,36.672
			
			
			c11.345-7.002,46.513-29.461
			
			c-25.301-24.329-60.207-37.729-98.287-37.729c-45.842,0-81.363,13.59-105.584,40.393c-21.766,24.088-33.271,58.135-33.271,98.461
			h-15.143c0-40.325-11.505-74.373-33.27-98.461C235.353,50.263,199.833,36.672,153.998,36.672z" fill="#fdc3c1"/>
	</g>
</g>
<g>
</g>
<g>
</g>
<g>
</g>
<g>
</g>
<g>
</g>
<g>
</g>
<g>
</g>
<g>
</g>
<g>
</g>
<g>
</g>
<g>
</g>
<g>
</g>
<g>
</g>
<g>
</g>
<g>
</g>
</svg>
